<svg xmlns="http://www.w3.org/2000/svg" width="840" height="440" viewBox="0 0 840 440">
  <defs>
    <linearGradient id="bg" x1="0" y1="0" x2="1" y2="1">
      <stop offset="0" stop-color="#0d0b1a"/><stop offset="1" stop-color="#120f24"/>
    </linearGradient>
    <linearGradient id="ring" x1="0" y1="0" x2="1" y2="1">
      <stop offset="0" stop-color="#a78bfa"/><stop offset="1" stop-color="#22d3ee"/>
    </linearGradient>
    <linearGradient id="title" x1="0" x2="1">
      <stop offset="0" stop-color="#c4b5fd"/><stop offset="1" stop-color="#67e8f9"/>
    </linearGradient>
    <radialGradient id="glow"><stop offset="0" stop-color="#7c3aed" stop-opacity=".35"/><stop offset="1" stop-color="#7c3aed" stop-opacity="0"/></radialGradient>
    <clipPath id="barclip"><rect width="488" height="10" rx="5"/></clipPath>
    <style>
      .lbl { font: 600 13px 'Segoe UI', Helvetica, Arial, sans-serif; fill: #a39fc0; }
      .val { font: 800 30px 'Segoe UI', Helvetica, Arial, sans-serif; }
      .leg { font: 500 13px 'Segoe UI', Helvetica, Arial, sans-serif; fill: #e2e0f0; }
      .mono { font-family: 'Fira Code', Consolas, Menlo, monospace; }
      .live { animation: pulse 1.6s ease-in-out infinite; }
      @keyframes pulse { 50% { opacity: .25; } }
    </style>
  </defs>

  <rect width="840" height="440" rx="24" fill="url(#bg)"/>
  <rect x=".5" y=".5" width="839" height="439" rx="24" fill="none" stroke="#ffffff" stroke-opacity=".08"/>
  <circle cx="150" cy="190" r="190" fill="url(#glow)"/>

  <!-- header -->
  <text x="32" y="50" font-family="Segoe UI, Helvetica, Arial, sans-serif" font-size="22" font-weight="800" fill="url(#title)">⚡ AXRYZURE DASHBOARD</text>
  <g transform="translate(808 44)">
    <text x="0" y="0" text-anchor="end" class="mono" font-size="12" fill="#8b86a8">sinkron 07:24 WIB</text>
    <circle cx="-136" cy="-4" r="5" fill="#4ade80" class="live"/>
  </g>
  <line x1="32" y1="70" x2="808" y2="70" stroke="#ffffff" stroke-opacity=".07"/>

  <!-- analog clock -->
  <circle cx="150" cy="190" r="100" fill="none" stroke="url(#ring)" stroke-width="3" opacity=".9"/>
  <circle cx="150" cy="190" r="92" fill="#0a0815"/>
  <line x1="150" y1="104" x2="150" y2="114" stroke="#c4b5fd" stroke-width="3" stroke-linecap="round" transform="rotate(0 150 190)"/><line x1="150" y1="104" x2="150" y2="108" stroke="#4c4670" stroke-width="1.5" stroke-linecap="round" transform="rotate(6 150 190)"/><line x1="150" y1="104" x2="150" y2="108" stroke="#4c4670" stroke-width="1.5" stroke-linecap="round" transform="rotate(12 150 190)"/><line x1="150" y1="104" x2="150" y2="108" stroke="#4c4670" stroke-width="1.5" stroke-linecap="round" transform="rotate(18 150 190)"/><line x1="150" y1="104" x2="150" y2="108" stroke="#4c4670" stroke-width="1.5" stroke-linecap="round" transform="rotate(24 150 190)"/><line x1="150" y1="104" x2="150" y2="114" stroke="#c4b5fd" stroke-width="3" stroke-linecap="round" transform="rotate(30 150 190)"/><line x1="150" y1="104" x2="150" y2="108" stroke="#4c4670" stroke-width="1.5" stroke-linecap="round" transform="rotate(36 150 190)"/><line x1="150" y1="104" x2="150" y2="108" stroke="#4c4670" stroke-width="1.5" stroke-linecap="round" transform="rotate(42 150 190)"/><line x1="150" y1="104" x2="150" y2="108" stroke="#4c4670" stroke-width="1.5" stroke-linecap="round" transform="rotate(48 150 190)"/><line x1="150" y1="104" x2="150" y2="108" stroke="#4c4670" stroke-width="1.5" stroke-linecap="round" transform="rotate(54 150 190)"/><line x1="150" y1="104" x2="150" y2="114" stroke="#c4b5fd" stroke-width="3" stroke-linecap="round" transform="rotate(60 150 190)"/><line x1="150" y1="104" x2="150" y2="108" stroke="#4c4670" stroke-width="1.5" stroke-linecap="round" transform="rotate(66 150 190)"/><line x1="150" y1="104" x2="150" y2="108" stroke="#4c4670" stroke-width="1.5" stroke-linecap="round" transform="rotate(72 150 190)"/><line x1="150" y1="104" x2="150" y2="108" stroke="#4c4670" stroke-width="1.5" stroke-linecap="round" transform="rotate(78 150 190)"/><line x1="150" y1="104" x2="150" y2="108" stroke="#4c4670" stroke-width="1.5" stroke-linecap="round" transform="rotate(84 150 190)"/><line x1="150" y1="104" x2="150" y2="114" stroke="#c4b5fd" stroke-width="3" stroke-linecap="round" transform="rotate(90 150 190)"/><line x1="150" y1="104" x2="150" y2="108" stroke="#4c4670" stroke-width="1.5" stroke-linecap="round" transform="rotate(96 150 190)"/><line x1="150" y1="104" x2="150" y2="108" stroke="#4c4670" stroke-width="1.5" stroke-linecap="round" transform="rotate(102 150 190)"/><line x1="150" y1="104" x2="150" y2="108" stroke="#4c4670" stroke-width="1.5" stroke-linecap="round" transform="rotate(108 150 190)"/><line x1="150" y1="104" x2="150" y2="108" stroke="#4c4670" stroke-width="1.5" stroke-linecap="round" transform="rotate(114 150 190)"/><line x1="150" y1="104" x2="150" y2="114" stroke="#c4b5fd" stroke-width="3" stroke-linecap="round" transform="rotate(120 150 190)"/><line x1="150" y1="104" x2="150" y2="108" stroke="#4c4670" stroke-width="1.5" stroke-linecap="round" transform="rotate(126 150 190)"/><line x1="150" y1="104" x2="150" y2="108" stroke="#4c4670" stroke-width="1.5" stroke-linecap="round" transform="rotate(132 150 190)"/><line x1="150" y1="104" x2="150" y2="108" stroke="#4c4670" stroke-width="1.5" stroke-linecap="round" transform="rotate(138 150 190)"/><line x1="150" y1="104" x2="150" y2="108" stroke="#4c4670" stroke-width="1.5" stroke-linecap="round" transform="rotate(144 150 190)"/><line x1="150" y1="104" x2="150" y2="114" stroke="#c4b5fd" stroke-width="3" stroke-linecap="round" transform="rotate(150 150 190)"/><line x1="150" y1="104" x2="150" y2="108" stroke="#4c4670" stroke-width="1.5" stroke-linecap="round" transform="rotate(156 150 190)"/><line x1="150" y1="104" x2="150" y2="108" stroke="#4c4670" stroke-width="1.5" stroke-linecap="round" transform="rotate(162 150 190)"/><line x1="150" y1="104" x2="150" y2="108" stroke="#4c4670" stroke-width="1.5" stroke-linecap="round" transform="rotate(168 150 190)"/><line x1="150" y1="104" x2="150" y2="108" stroke="#4c4670" stroke-width="1.5" stroke-linecap="round" transform="rotate(174 150 190)"/><line x1="150" y1="104" x2="150" y2="114" stroke="#c4b5fd" stroke-width="3" stroke-linecap="round" transform="rotate(180 150 190)"/><line x1="150" y1="104" x2="150" y2="108" stroke="#4c4670" stroke-width="1.5" stroke-linecap="round" transform="rotate(186 150 190)"/><line x1="150" y1="104" x2="150" y2="108" stroke="#4c4670" stroke-width="1.5" stroke-linecap="round" transform="rotate(192 150 190)"/><line x1="150" y1="104" x2="150" y2="108" stroke="#4c4670" stroke-width="1.5" stroke-linecap="round" transform="rotate(198 150 190)"/><line x1="150" y1="104" x2="150" y2="108" stroke="#4c4670" stroke-width="1.5" stroke-linecap="round" transform="rotate(204 150 190)"/><line x1="150" y1="104" x2="150" y2="114" stroke="#c4b5fd" stroke-width="3" stroke-linecap="round" transform="rotate(210 150 190)"/><line x1="150" y1="104" x2="150" y2="108" stroke="#4c4670" stroke-width="1.5" stroke-linecap="round" transform="rotate(216 150 190)"/><line x1="150" y1="104" x2="150" y2="108" stroke="#4c4670" stroke-width="1.5" stroke-linecap="round" transform="rotate(222 150 190)"/><line x1="150" y1="104" x2="150" y2="108" stroke="#4c4670" stroke-width="1.5" stroke-linecap="round" transform="rotate(228 150 190)"/><line x1="150" y1="104" x2="150" y2="108" stroke="#4c4670" stroke-width="1.5" stroke-linecap="round" transform="rotate(234 150 190)"/><line x1="150" y1="104" x2="150" y2="114" stroke="#c4b5fd" stroke-width="3" stroke-linecap="round" transform="rotate(240 150 190)"/><line x1="150" y1="104" x2="150" y2="108" stroke="#4c4670" stroke-width="1.5" stroke-linecap="round" transform="rotate(246 150 190)"/><line x1="150" y1="104" x2="150" y2="108" stroke="#4c4670" stroke-width="1.5" stroke-linecap="round" transform="rotate(252 150 190)"/><line x1="150" y1="104" x2="150" y2="108" stroke="#4c4670" stroke-width="1.5" stroke-linecap="round" transform="rotate(258 150 190)"/><line x1="150" y1="104" x2="150" y2="108" stroke="#4c4670" stroke-width="1.5" stroke-linecap="round" transform="rotate(264 150 190)"/><line x1="150" y1="104" x2="150" y2="114" stroke="#c4b5fd" stroke-width="3" stroke-linecap="round" transform="rotate(270 150 190)"/><line x1="150" y1="104" x2="150" y2="108" stroke="#4c4670" stroke-width="1.5" stroke-linecap="round" transform="rotate(276 150 190)"/><line x1="150" y1="104" x2="150" y2="108" stroke="#4c4670" stroke-width="1.5" stroke-linecap="round" transform="rotate(282 150 190)"/><line x1="150" y1="104" x2="150" y2="108" stroke="#4c4670" stroke-width="1.5" stroke-linecap="round" transform="rotate(288 150 190)"/><line x1="150" y1="104" x2="150" y2="108" stroke="#4c4670" stroke-width="1.5" stroke-linecap="round" transform="rotate(294 150 190)"/><line x1="150" y1="104" x2="150" y2="114" stroke="#c4b5fd" stroke-width="3" stroke-linecap="round" transform="rotate(300 150 190)"/><line x1="150" y1="104" x2="150" y2="108" stroke="#4c4670" stroke-width="1.5" stroke-linecap="round" transform="rotate(306 150 190)"/><line x1="150" y1="104" x2="150" y2="108" stroke="#4c4670" stroke-width="1.5" stroke-linecap="round" transform="rotate(312 150 190)"/><line x1="150" y1="104" x2="150" y2="108" stroke="#4c4670" stroke-width="1.5" stroke-linecap="round" transform="rotate(318 150 190)"/><line x1="150" y1="104" x2="150" y2="108" stroke="#4c4670" stroke-width="1.5" stroke-linecap="round" transform="rotate(324 150 190)"/><line x1="150" y1="104" x2="150" y2="114" stroke="#c4b5fd" stroke-width="3" stroke-linecap="round" transform="rotate(330 150 190)"/><line x1="150" y1="104" x2="150" y2="108" stroke="#4c4670" stroke-width="1.5" stroke-linecap="round" transform="rotate(336 150 190)"/><line x1="150" y1="104" x2="150" y2="108" stroke="#4c4670" stroke-width="1.5" stroke-linecap="round" transform="rotate(342 150 190)"/><line x1="150" y1="104" x2="150" y2="108" stroke="#4c4670" stroke-width="1.5" stroke-linecap="round" transform="rotate(348 150 190)"/><line x1="150" y1="104" x2="150" y2="108" stroke="#4c4670" stroke-width="1.5" stroke-linecap="round" transform="rotate(354 150 190)"/>
  <line x1="150" y1="202" x2="150" y2="140" stroke="#ffffff" stroke-width="6" stroke-linecap="round">
    <animateTransform attributeName="transform" type="rotate" from="222.317 150 190" to="582.317 150 190" dur="43200s" repeatCount="indefinite"/>
  </line>
  <line x1="150" y1="204" x2="150" y2="118" stroke="#c4b5fd" stroke-width="4" stroke-linecap="round">
    <animateTransform attributeName="transform" type="rotate" from="147.800 150 190" to="507.800 150 190" dur="3600s" repeatCount="indefinite"/>
  </line>
  <g>
    <line x1="150" y1="210" x2="150" y2="110" stroke="#22d3ee" stroke-width="2" stroke-linecap="round"/>
    <circle cx="150" cy="110" r="3" fill="#22d3ee"/>
    <animateTransform attributeName="transform" type="rotate" from="228 150 190" to="588 150 190" dur="60s" repeatCount="indefinite"/>
  </g>
  <circle cx="150" cy="190" r="7" fill="#22d3ee"/><circle cx="150" cy="190" r="3" fill="#0a0815"/>

  <!-- digital clock -->
  <g transform="translate(88 338)" class="mono" font-size="34" font-weight="600" fill="#ffffff">
    <g><text x="0" y="0" opacity="0">07:24<set attributeName="opacity" to="1" begin="0s" dur="22s"/></text><text x="0" y="0" opacity="0">07:25<set attributeName="opacity" to="1" begin="22s" dur="60s"/></text><text x="0" y="0" opacity="0">07:26<set attributeName="opacity" to="1" begin="82s" dur="60s"/></text><text x="0" y="0" opacity="0">07:27<set attributeName="opacity" to="1" begin="142s" dur="60s"/></text><text x="0" y="0" opacity="0">07:28<set attributeName="opacity" to="1" begin="202s" dur="60s"/></text><text x="0" y="0" opacity="0">07:29<set attributeName="opacity" to="1" begin="262s" dur="60s"/></text><text x="0" y="0" opacity="0">07:30<set attributeName="opacity" to="1" begin="322s" dur="60s"/></text><text x="0" y="0" opacity="0">07:31<set attributeName="opacity" to="1" begin="382s" dur="60s"/></text><text x="0" y="0" opacity="0">07:32<set attributeName="opacity" to="1" begin="442s" dur="60s"/></text><text x="0" y="0" opacity="0">07:33<set attributeName="opacity" to="1" begin="502s" dur="60s"/></text><text x="0" y="0" opacity="0">07:34<set attributeName="opacity" to="1" begin="562s" dur="60s"/></text><text x="0" y="0" opacity="0">07:35<set attributeName="opacity" to="1" begin="622s" dur="60s"/></text><text x="0" y="0" opacity="0">07:36<set attributeName="opacity" to="1" begin="682s" dur="60s"/></text><text x="0" y="0" opacity="0">07:37<set attributeName="opacity" to="1" begin="742s" dur="60s"/></text><text x="0" y="0" opacity="0">07:38<set attributeName="opacity" to="1" begin="802s" dur="60s"/></text><text x="0" y="0" opacity="0">07:39<set attributeName="opacity" to="1" begin="862s" dur="60s"/></text><text x="0" y="0" opacity="0">07:40<set attributeName="opacity" to="1" begin="922s" dur="60s"/></text><text x="0" y="0" opacity="0">07:41<set attributeName="opacity" to="1" begin="982s" dur="60s"/></text><text x="0" y="0" opacity="0">07:42<set attributeName="opacity" to="1" begin="1042s" dur="60s"/></text><text x="0" y="0" opacity="0">07:43<set attributeName="opacity" to="1" begin="1102s" dur="60s"/></text><text x="0" y="0" opacity="0">07:44<set attributeName="opacity" to="1" begin="1162s" dur="60s"/></text><text x="0" y="0" opacity="0">07:45<set attributeName="opacity" to="1" begin="1222s" dur="60s"/></text><text x="0" y="0" opacity="0">07:46<set attributeName="opacity" to="1" begin="1282s" dur="60s"/></text><text x="0" y="0" opacity="0">07:47<set attributeName="opacity" to="1" begin="1342s" dur="60s"/></text><text x="0" y="0" opacity="0">07:48<set attributeName="opacity" to="1" begin="1402s" dur="60s"/></text><text x="0" y="0" opacity="0">07:49<set attributeName="opacity" to="1" begin="1462s" dur="60s"/></text><text x="0" y="0" opacity="0">07:50<set attributeName="opacity" to="1" begin="1522s" dur="60s"/></text><text x="0" y="0" opacity="0">07:51<set attributeName="opacity" to="1" begin="1582s" dur="60s"/></text><text x="0" y="0" opacity="0">07:52<set attributeName="opacity" to="1" begin="1642s" dur="60s"/></text><text x="0" y="0" opacity="0">07:53<set attributeName="opacity" to="1" begin="1702s" dur="60s"/></text><text x="0" y="0" opacity="0">07:54<set attributeName="opacity" to="1" begin="1762s" dur="60s"/></text><text x="0" y="0" opacity="0">07:55<set attributeName="opacity" to="1" begin="1822s" dur="60s"/></text><text x="0" y="0" opacity="0">07:56<set attributeName="opacity" to="1" begin="1882s" dur="60s"/></text><text x="0" y="0" opacity="0">07:57<set attributeName="opacity" to="1" begin="1942s" dur="60s"/></text><text x="0" y="0" opacity="0">07:58<set attributeName="opacity" to="1" begin="2002s" dur="60s"/></text><text x="0" y="0" opacity="0">07:59<set attributeName="opacity" to="1" begin="2062s" dur="60s"/></text><text x="0" y="0" opacity="0">08:00<set attributeName="opacity" to="1" begin="2122s" dur="60s"/></text><text x="0" y="0" opacity="0">08:01<set attributeName="opacity" to="1" begin="2182s" dur="60s"/></text><text x="0" y="0" opacity="0">08:02<set attributeName="opacity" to="1" begin="2242s" dur="60s"/></text><text x="0" y="0" opacity="0">08:03<set attributeName="opacity" to="1" begin="2302s" dur="60s"/></text><text x="0" y="0" opacity="0">08:04<set attributeName="opacity" to="1" begin="2362s" dur="60s"/></text><text x="0" y="0" opacity="0">08:05<set attributeName="opacity" to="1" begin="2422s" dur="60s"/></text><text x="0" y="0" opacity="0">08:06<set attributeName="opacity" to="1" begin="2482s" dur="60s"/></text><text x="0" y="0" opacity="0">08:07<set attributeName="opacity" to="1" begin="2542s" dur="60s"/></text><text x="0" y="0" opacity="0">08:08<set attributeName="opacity" to="1" begin="2602s" dur="60s"/></text><text x="0" y="0" opacity="0">08:09<set attributeName="opacity" to="1" begin="2662s" dur="60s"/></text><text x="0" y="0" opacity="0">08:10<set attributeName="opacity" to="1" begin="2722s" dur="60s"/></text><text x="0" y="0" opacity="0">08:11<set attributeName="opacity" to="1" begin="2782s" dur="60s"/></text><text x="0" y="0" opacity="0">08:12<set attributeName="opacity" to="1" begin="2842s" dur="60s"/></text><text x="0" y="0" opacity="0">08:13<set attributeName="opacity" to="1" begin="2902s" dur="60s"/></text><text x="0" y="0" opacity="0">08:14<set attributeName="opacity" to="1" begin="2962s" dur="60s"/></text><text x="0" y="0" opacity="0">08:15<set attributeName="opacity" to="1" begin="3022s" dur="60s"/></text><text x="0" y="0" opacity="0">08:16<set attributeName="opacity" to="1" begin="3082s" dur="60s"/></text><text x="0" y="0" opacity="0">08:17<set attributeName="opacity" to="1" begin="3142s" dur="60s"/></text><text x="0" y="0" opacity="0">08:18<set attributeName="opacity" to="1" begin="3202s" dur="60s"/></text><text x="0" y="0" opacity="0">08:19<set attributeName="opacity" to="1" begin="3262s" dur="60s"/></text><text x="0" y="0" opacity="0">08:20<set attributeName="opacity" to="1" begin="3322s" dur="60s"/></text><text x="0" y="0" opacity="0">08:21<set attributeName="opacity" to="1" begin="3382s" dur="60s"/></text><text x="0" y="0" opacity="0">08:22<set attributeName="opacity" to="1" begin="3442s" dur="60s"/></text><text x="0" y="0" opacity="0">08:23<set attributeName="opacity" to="1" begin="3502s" dur="60s"/></text><text x="0" y="0" opacity="0">08:24<set attributeName="opacity" to="1" begin="3562s" dur="60s"/></text><text x="0" y="0" opacity="0">08:25<set attributeName="opacity" to="1" begin="3622s" dur="60s"/></text><text x="0" y="0" opacity="0">08:26<set attributeName="opacity" to="1" begin="3682s" dur="60s"/></text><text x="0" y="0" opacity="0">08:27<set attributeName="opacity" to="1" begin="3742s" dur="60s"/></text><text x="0" y="0" opacity="0">08:28<set attributeName="opacity" to="1" begin="3802s" dur="60s"/></text><text x="0" y="0" opacity="0">08:29<set attributeName="opacity" to="1" begin="3862s" dur="60s"/></text><text x="0" y="0" opacity="0">08:30<set attributeName="opacity" to="1" begin="3922s" dur="60s"/></text><text x="0" y="0" opacity="0">08:31<set attributeName="opacity" to="1" begin="3982s" dur="60s"/></text><text x="0" y="0" opacity="0">08:32<set attributeName="opacity" to="1" begin="4042s" dur="60s"/></text><text x="0" y="0" opacity="0">08:33<set attributeName="opacity" to="1" begin="4102s" dur="60s"/></text><text x="0" y="0" opacity="0">08:34<set attributeName="opacity" to="1" begin="4162s" dur="60s"/></text><text x="0" y="0" opacity="0">08:35<set attributeName="opacity" to="1" begin="4222s" dur="60s"/></text><text x="0" y="0" opacity="0">08:36<set attributeName="opacity" to="1" begin="4282s" dur="60s"/></text><text x="0" y="0" opacity="0">08:37<set attributeName="opacity" to="1" begin="4342s" dur="60s"/></text><text x="0" y="0" opacity="0">08:38<set attributeName="opacity" to="1" begin="4402s" dur="60s"/></text><text x="0" y="0" opacity="0">08:39<set attributeName="opacity" to="1" begin="4462s" dur="60s"/></text><text x="0" y="0" opacity="0">08:40<set attributeName="opacity" to="1" begin="4522s" dur="60s"/></text><text x="0" y="0" opacity="0">08:41<set attributeName="opacity" to="1" begin="4582s" dur="60s"/></text><text x="0" y="0" opacity="0">08:42<set attributeName="opacity" to="1" begin="4642s" dur="60s"/></text><text x="0" y="0" opacity="0">08:43<set attributeName="opacity" to="1" begin="4702s" dur="60s"/></text><text x="0" y="0" opacity="0">08:44<set attributeName="opacity" to="1" begin="4762s" dur="60s"/></text><text x="0" y="0" opacity="0">08:45<set attributeName="opacity" to="1" begin="4822s" dur="60s"/></text><text x="0" y="0" opacity="0">08:46<set attributeName="opacity" to="1" begin="4882s" dur="60s"/></text><text x="0" y="0" opacity="0">08:47<set attributeName="opacity" to="1" begin="4942s" dur="60s"/></text><text x="0" y="0" opacity="0">08:48<set attributeName="opacity" to="1" begin="5002s" dur="60s"/></text><text x="0" y="0" opacity="0">08:49<set attributeName="opacity" to="1" begin="5062s" dur="60s"/></text><text x="0" y="0" opacity="0">08:50<set attributeName="opacity" to="1" begin="5122s" dur="60s"/></text><text x="0" y="0" opacity="0">08:51<set attributeName="opacity" to="1" begin="5182s" dur="60s"/></text><text x="0" y="0" opacity="0">08:52<set attributeName="opacity" to="1" begin="5242s" dur="60s"/></text><text x="0" y="0" opacity="0">08:53<set attributeName="opacity" to="1" begin="5302s" dur="60s"/></text><text x="0" y="0" opacity="0">08:54<set attributeName="opacity" to="1" begin="5362s" dur="60s"/></text><text x="0" y="0" opacity="0">08:55<set attributeName="opacity" to="1" begin="5422s" dur="60s"/></text><text x="0" y="0" opacity="0">08:56<set attributeName="opacity" to="1" begin="5482s" dur="60s"/></text><text x="0" y="0" opacity="0">08:57<set attributeName="opacity" to="1" begin="5542s" dur="60s"/></text><text x="0" y="0" opacity="0">08:58<set attributeName="opacity" to="1" begin="5602s" dur="60s"/></text><text x="0" y="0" opacity="0">08:59<set attributeName="opacity" to="1" begin="5662s" dur="60s"/></text><text x="0" y="0" opacity="0">09:00<set attributeName="opacity" to="1" begin="5722s" dur="60s"/></text><text x="0" y="0" opacity="0">09:01<set attributeName="opacity" to="1" begin="5782s" dur="60s"/></text><text x="0" y="0" opacity="0">09:02<set attributeName="opacity" to="1" begin="5842s" dur="60s"/></text><text x="0" y="0" opacity="0">09:03<set attributeName="opacity" to="1" begin="5902s" dur="60s"/></text><text x="0" y="0" opacity="0">09:04<set attributeName="opacity" to="1" begin="5962s" dur="60s"/></text><text x="0" y="0" opacity="0">09:05<set attributeName="opacity" to="1" begin="6022s" dur="60s"/></text><text x="0" y="0" opacity="0">09:06<set attributeName="opacity" to="1" begin="6082s" dur="60s"/></text><text x="0" y="0" opacity="0">09:07<set attributeName="opacity" to="1" begin="6142s" dur="60s"/></text><text x="0" y="0" opacity="0">09:08<set attributeName="opacity" to="1" begin="6202s" dur="60s"/></text><text x="0" y="0" opacity="0">09:09<set attributeName="opacity" to="1" begin="6262s" dur="60s"/></text><text x="0" y="0" opacity="0">09:10<set attributeName="opacity" to="1" begin="6322s" dur="60s"/></text><text x="0" y="0" opacity="0">09:11<set attributeName="opacity" to="1" begin="6382s" dur="60s"/></text><text x="0" y="0" opacity="0">09:12<set attributeName="opacity" to="1" begin="6442s" dur="60s"/></text><text x="0" y="0" opacity="0">09:13<set attributeName="opacity" to="1" begin="6502s" dur="60s"/></text><text x="0" y="0" opacity="0">09:14<set attributeName="opacity" to="1" begin="6562s" dur="60s"/></text><text x="0" y="0" opacity="0">09:15<set attributeName="opacity" to="1" begin="6622s" dur="60s"/></text><text x="0" y="0" opacity="0">09:16<set attributeName="opacity" to="1" begin="6682s" dur="60s"/></text><text x="0" y="0" opacity="0">09:17<set attributeName="opacity" to="1" begin="6742s" dur="60s"/></text><text x="0" y="0" opacity="0">09:18<set attributeName="opacity" to="1" begin="6802s" dur="60s"/></text><text x="0" y="0" opacity="0">09:19<set attributeName="opacity" to="1" begin="6862s" dur="60s"/></text><text x="0" y="0" opacity="0">09:20<set attributeName="opacity" to="1" begin="6922s" dur="60s"/></text><text x="0" y="0" opacity="0">09:21<set attributeName="opacity" to="1" begin="6982s" dur="60s"/></text><text x="0" y="0" opacity="0">09:22<set attributeName="opacity" to="1" begin="7042s" dur="60s"/></text><text x="0" y="0" opacity="0">09:23<set attributeName="opacity" to="1" begin="7102s" dur="60s"/></text><text x="0" y="0" opacity="0">09:24<set attributeName="opacity" to="1" begin="7162s" dur="60s"/></text><text x="0" y="0" opacity="0">09:25<set attributeName="opacity" to="1" begin="7222s" dur="60s"/></text><text x="0" y="0" opacity="0">09:26<set attributeName="opacity" to="1" begin="7282s" dur="60s"/></text><text x="0" y="0" opacity="0">09:27<set attributeName="opacity" to="1" begin="7342s" dur="60s"/></text><text x="0" y="0" opacity="0">09:28<set attributeName="opacity" to="1" begin="7402s" dur="60s"/></text><text x="0" y="0" opacity="0">09:29<set attributeName="opacity" to="1" begin="7462s" dur="60s"/></text><text x="0" y="0" opacity="0">09:30<set attributeName="opacity" to="1" begin="7522s" dur="60s"/></text><text x="0" y="0" opacity="0">09:31<set attributeName="opacity" to="1" begin="7582s" dur="60s"/></text><text x="0" y="0" opacity="0">09:32<set attributeName="opacity" to="1" begin="7642s" dur="60s"/></text><text x="0" y="0" opacity="0">09:33<set attributeName="opacity" to="1" begin="7702s" dur="60s"/></text><text x="0" y="0" opacity="0">09:34<set attributeName="opacity" to="1" begin="7762s" dur="60s"/></text><text x="0" y="0" opacity="0">09:35<set attributeName="opacity" to="1" begin="7822s" dur="60s"/></text><text x="0" y="0" opacity="0">09:36<set attributeName="opacity" to="1" begin="7882s" dur="60s"/></text><text x="0" y="0" opacity="0">09:37<set attributeName="opacity" to="1" begin="7942s" dur="60s"/></text><text x="0" y="0" opacity="0">09:38<set attributeName="opacity" to="1" begin="8002s" dur="60s"/></text><text x="0" y="0" opacity="0">09:39<set attributeName="opacity" to="1" begin="8062s" dur="60s"/></text><text x="0" y="0" opacity="0">09:40<set attributeName="opacity" to="1" begin="8122s" dur="60s"/></text><text x="0" y="0" opacity="0">09:41<set attributeName="opacity" to="1" begin="8182s" dur="60s"/></text><text x="0" y="0" opacity="0">09:42<set attributeName="opacity" to="1" begin="8242s" dur="60s"/></text><text x="0" y="0" opacity="0">09:43<set attributeName="opacity" to="1" begin="8302s" dur="60s"/></text><text x="0" y="0" opacity="0">09:44<set attributeName="opacity" to="1" begin="8362s" dur="60s"/></text><text x="0" y="0" opacity="0">09:45<set attributeName="opacity" to="1" begin="8422s" dur="60s"/></text><text x="0" y="0" opacity="0">09:46<set attributeName="opacity" to="1" begin="8482s" dur="60s"/></text><text x="0" y="0" opacity="0">09:47<set attributeName="opacity" to="1" begin="8542s" dur="60s"/></text><text x="0" y="0" opacity="0">09:48<set attributeName="opacity" to="1" begin="8602s" dur="60s"/></text><text x="0" y="0" opacity="0">09:49<set attributeName="opacity" to="1" begin="8662s" dur="60s"/></text><text x="0" y="0" opacity="0">09:50<set attributeName="opacity" to="1" begin="8722s" dur="60s"/></text><text x="0" y="0" opacity="0">09:51<set attributeName="opacity" to="1" begin="8782s" dur="60s"/></text><text x="0" y="0" opacity="0">09:52<set attributeName="opacity" to="1" begin="8842s" dur="60s"/></text><text x="0" y="0" opacity="0">09:53<set attributeName="opacity" to="1" begin="8902s" dur="60s"/></text><text x="0" y="0" opacity="0">09:54<set attributeName="opacity" to="1" begin="8962s" dur="60s"/></text><text x="0" y="0" opacity="0">09:55<set attributeName="opacity" to="1" begin="9022s" dur="60s"/></text><text x="0" y="0" opacity="0">09:56<set attributeName="opacity" to="1" begin="9082s" dur="60s"/></text><text x="0" y="0" opacity="0">09:57<set attributeName="opacity" to="1" begin="9142s" dur="60s"/></text><text x="0" y="0" opacity="0">09:58<set attributeName="opacity" to="1" begin="9202s" dur="60s"/></text><text x="0" y="0" opacity="0">09:59<set attributeName="opacity" to="1" begin="9262s" dur="60s"/></text><text x="0" y="0" opacity="0">10:00<set attributeName="opacity" to="1" begin="9322s" dur="60s"/></text><text x="0" y="0" opacity="0">10:01<set attributeName="opacity" to="1" begin="9382s" dur="60s"/></text><text x="0" y="0" opacity="0">10:02<set attributeName="opacity" to="1" begin="9442s" dur="60s"/></text><text x="0" y="0" opacity="0">10:03<set attributeName="opacity" to="1" begin="9502s" dur="60s"/></text><text x="0" y="0" opacity="0">10:04<set attributeName="opacity" to="1" begin="9562s" dur="60s"/></text><text x="0" y="0" opacity="0">10:05<set attributeName="opacity" to="1" begin="9622s" dur="60s"/></text><text x="0" y="0" opacity="0">10:06<set attributeName="opacity" to="1" begin="9682s" dur="60s"/></text><text x="0" y="0" opacity="0">10:07<set attributeName="opacity" to="1" begin="9742s" dur="60s"/></text><text x="0" y="0" opacity="0">10:08<set attributeName="opacity" to="1" begin="9802s" dur="60s"/></text><text x="0" y="0" opacity="0">10:09<set attributeName="opacity" to="1" begin="9862s" dur="60s"/></text><text x="0" y="0" opacity="0">10:10<set attributeName="opacity" to="1" begin="9922s" dur="60s"/></text><text x="0" y="0" opacity="0">10:11<set attributeName="opacity" to="1" begin="9982s" dur="60s"/></text><text x="0" y="0" opacity="0">10:12<set attributeName="opacity" to="1" begin="10042s" dur="60s"/></text><text x="0" y="0" opacity="0">10:13<set attributeName="opacity" to="1" begin="10102s" dur="60s"/></text><text x="0" y="0" opacity="0">10:14<set attributeName="opacity" to="1" begin="10162s" dur="60s"/></text><text x="0" y="0" opacity="0">10:15<set attributeName="opacity" to="1" begin="10222s" dur="60s"/></text><text x="0" y="0" opacity="0">10:16<set attributeName="opacity" to="1" begin="10282s" dur="60s"/></text><text x="0" y="0" opacity="0">10:17<set attributeName="opacity" to="1" begin="10342s" dur="60s"/></text><text x="0" y="0" opacity="0">10:18<set attributeName="opacity" to="1" begin="10402s" dur="60s"/></text><text x="0" y="0" opacity="0">10:19<set attributeName="opacity" to="1" begin="10462s" dur="60s"/></text><text x="0" y="0" opacity="0">10:20<set attributeName="opacity" to="1" begin="10522s" dur="60s"/></text><text x="0" y="0" opacity="0">10:21<set attributeName="opacity" to="1" begin="10582s" dur="60s"/></text><text x="0" y="0" opacity="0">10:22<set attributeName="opacity" to="1" begin="10642s" dur="60s"/></text><text x="0" y="0" opacity="0">10:23<set attributeName="opacity" to="1" begin="10702s" dur="60s"/></text></g>
    <g transform="translate(100 0)" font-size="20" fill="#22d3ee"><text x="0" y="0" opacity="0">00<animate attributeName="opacity" values="0;1;0" keyTimes="0;0.36667;0.38333" calcMode="discrete" dur="60s" repeatCount="indefinite"/></text><text x="0" y="0" opacity="0">01<animate attributeName="opacity" values="0;1;0" keyTimes="0;0.38333;0.40000" calcMode="discrete" dur="60s" repeatCount="indefinite"/></text><text x="0" y="0" opacity="0">02<animate attributeName="opacity" values="0;1;0" keyTimes="0;0.40000;0.41667" calcMode="discrete" dur="60s" repeatCount="indefinite"/></text><text x="0" y="0" opacity="0">03<animate attributeName="opacity" values="0;1;0" keyTimes="0;0.41667;0.43333" calcMode="discrete" dur="60s" repeatCount="indefinite"/></text><text x="0" y="0" opacity="0">04<animate attributeName="opacity" values="0;1;0" keyTimes="0;0.43333;0.45000" calcMode="discrete" dur="60s" repeatCount="indefinite"/></text><text x="0" y="0" opacity="0">05<animate attributeName="opacity" values="0;1;0" keyTimes="0;0.45000;0.46667" calcMode="discrete" dur="60s" repeatCount="indefinite"/></text><text x="0" y="0" opacity="0">06<animate attributeName="opacity" values="0;1;0" keyTimes="0;0.46667;0.48333" calcMode="discrete" dur="60s" repeatCount="indefinite"/></text><text x="0" y="0" opacity="0">07<animate attributeName="opacity" values="0;1;0" keyTimes="0;0.48333;0.50000" calcMode="discrete" dur="60s" repeatCount="indefinite"/></text><text x="0" y="0" opacity="0">08<animate attributeName="opacity" values="0;1;0" keyTimes="0;0.50000;0.51667" calcMode="discrete" dur="60s" repeatCount="indefinite"/></text><text x="0" y="0" opacity="0">09<animate attributeName="opacity" values="0;1;0" keyTimes="0;0.51667;0.53333" calcMode="discrete" dur="60s" repeatCount="indefinite"/></text><text x="0" y="0" opacity="0">10<animate attributeName="opacity" values="0;1;0" keyTimes="0;0.53333;0.55000" calcMode="discrete" dur="60s" repeatCount="indefinite"/></text><text x="0" y="0" opacity="0">11<animate attributeName="opacity" values="0;1;0" keyTimes="0;0.55000;0.56667" calcMode="discrete" dur="60s" repeatCount="indefinite"/></text><text x="0" y="0" opacity="0">12<animate attributeName="opacity" values="0;1;0" keyTimes="0;0.56667;0.58333" calcMode="discrete" dur="60s" repeatCount="indefinite"/></text><text x="0" y="0" opacity="0">13<animate attributeName="opacity" values="0;1;0" keyTimes="0;0.58333;0.60000" calcMode="discrete" dur="60s" repeatCount="indefinite"/></text><text x="0" y="0" opacity="0">14<animate attributeName="opacity" values="0;1;0" keyTimes="0;0.60000;0.61667" calcMode="discrete" dur="60s" repeatCount="indefinite"/></text><text x="0" y="0" opacity="0">15<animate attributeName="opacity" values="0;1;0" keyTimes="0;0.61667;0.63333" calcMode="discrete" dur="60s" repeatCount="indefinite"/></text><text x="0" y="0" opacity="0">16<animate attributeName="opacity" values="0;1;0" keyTimes="0;0.63333;0.65000" calcMode="discrete" dur="60s" repeatCount="indefinite"/></text><text x="0" y="0" opacity="0">17<animate attributeName="opacity" values="0;1;0" keyTimes="0;0.65000;0.66667" calcMode="discrete" dur="60s" repeatCount="indefinite"/></text><text x="0" y="0" opacity="0">18<animate attributeName="opacity" values="0;1;0" keyTimes="0;0.66667;0.68333" calcMode="discrete" dur="60s" repeatCount="indefinite"/></text><text x="0" y="0" opacity="0">19<animate attributeName="opacity" values="0;1;0" keyTimes="0;0.68333;0.70000" calcMode="discrete" dur="60s" repeatCount="indefinite"/></text><text x="0" y="0" opacity="0">20<animate attributeName="opacity" values="0;1;0" keyTimes="0;0.70000;0.71667" calcMode="discrete" dur="60s" repeatCount="indefinite"/></text><text x="0" y="0" opacity="0">21<animate attributeName="opacity" values="0;1;0" keyTimes="0;0.71667;0.73333" calcMode="discrete" dur="60s" repeatCount="indefinite"/></text><text x="0" y="0" opacity="0">22<animate attributeName="opacity" values="0;1;0" keyTimes="0;0.73333;0.75000" calcMode="discrete" dur="60s" repeatCount="indefinite"/></text><text x="0" y="0" opacity="0">23<animate attributeName="opacity" values="0;1;0" keyTimes="0;0.75000;0.76667" calcMode="discrete" dur="60s" repeatCount="indefinite"/></text><text x="0" y="0" opacity="0">24<animate attributeName="opacity" values="0;1;0" keyTimes="0;0.76667;0.78333" calcMode="discrete" dur="60s" repeatCount="indefinite"/></text><text x="0" y="0" opacity="0">25<animate attributeName="opacity" values="0;1;0" keyTimes="0;0.78333;0.80000" calcMode="discrete" dur="60s" repeatCount="indefinite"/></text><text x="0" y="0" opacity="0">26<animate attributeName="opacity" values="0;1;0" keyTimes="0;0.80000;0.81667" calcMode="discrete" dur="60s" repeatCount="indefinite"/></text><text x="0" y="0" opacity="0">27<animate attributeName="opacity" values="0;1;0" keyTimes="0;0.81667;0.83333" calcMode="discrete" dur="60s" repeatCount="indefinite"/></text><text x="0" y="0" opacity="0">28<animate attributeName="opacity" values="0;1;0" keyTimes="0;0.83333;0.85000" calcMode="discrete" dur="60s" repeatCount="indefinite"/></text><text x="0" y="0" opacity="0">29<animate attributeName="opacity" values="0;1;0" keyTimes="0;0.85000;0.86667" calcMode="discrete" dur="60s" repeatCount="indefinite"/></text><text x="0" y="0" opacity="0">30<animate attributeName="opacity" values="0;1;0" keyTimes="0;0.86667;0.88333" calcMode="discrete" dur="60s" repeatCount="indefinite"/></text><text x="0" y="0" opacity="0">31<animate attributeName="opacity" values="0;1;0" keyTimes="0;0.88333;0.90000" calcMode="discrete" dur="60s" repeatCount="indefinite"/></text><text x="0" y="0" opacity="0">32<animate attributeName="opacity" values="0;1;0" keyTimes="0;0.90000;0.91667" calcMode="discrete" dur="60s" repeatCount="indefinite"/></text><text x="0" y="0" opacity="0">33<animate attributeName="opacity" values="0;1;0" keyTimes="0;0.91667;0.93333" calcMode="discrete" dur="60s" repeatCount="indefinite"/></text><text x="0" y="0" opacity="0">34<animate attributeName="opacity" values="0;1;0" keyTimes="0;0.93333;0.95000" calcMode="discrete" dur="60s" repeatCount="indefinite"/></text><text x="0" y="0" opacity="0">35<animate attributeName="opacity" values="0;1;0" keyTimes="0;0.95000;0.96667" calcMode="discrete" dur="60s" repeatCount="indefinite"/></text><text x="0" y="0" opacity="0">36<animate attributeName="opacity" values="0;1;0" keyTimes="0;0.96667;0.98333" calcMode="discrete" dur="60s" repeatCount="indefinite"/></text><text x="0" y="0" opacity="0">37<animate attributeName="opacity" values="0;1;1" keyTimes="0;0.98333;1" calcMode="discrete" dur="60s" repeatCount="indefinite"/></text><text x="0" y="0" opacity="0">38<animate attributeName="opacity" values="0;1;0" keyTimes="0;0.00000;0.01667" calcMode="discrete" dur="60s" repeatCount="indefinite"/></text><text x="0" y="0" opacity="0">39<animate attributeName="opacity" values="0;1;0" keyTimes="0;0.01667;0.03333" calcMode="discrete" dur="60s" repeatCount="indefinite"/></text><text x="0" y="0" opacity="0">40<animate attributeName="opacity" values="0;1;0" keyTimes="0;0.03333;0.05000" calcMode="discrete" dur="60s" repeatCount="indefinite"/></text><text x="0" y="0" opacity="0">41<animate attributeName="opacity" values="0;1;0" keyTimes="0;0.05000;0.06667" calcMode="discrete" dur="60s" repeatCount="indefinite"/></text><text x="0" y="0" opacity="0">42<animate attributeName="opacity" values="0;1;0" keyTimes="0;0.06667;0.08333" calcMode="discrete" dur="60s" repeatCount="indefinite"/></text><text x="0" y="0" opacity="0">43<animate attributeName="opacity" values="0;1;0" keyTimes="0;0.08333;0.10000" calcMode="discrete" dur="60s" repeatCount="indefinite"/></text><text x="0" y="0" opacity="0">44<animate attributeName="opacity" values="0;1;0" keyTimes="0;0.10000;0.11667" calcMode="discrete" dur="60s" repeatCount="indefinite"/></text><text x="0" y="0" opacity="0">45<animate attributeName="opacity" values="0;1;0" keyTimes="0;0.11667;0.13333" calcMode="discrete" dur="60s" repeatCount="indefinite"/></text><text x="0" y="0" opacity="0">46<animate attributeName="opacity" values="0;1;0" keyTimes="0;0.13333;0.15000" calcMode="discrete" dur="60s" repeatCount="indefinite"/></text><text x="0" y="0" opacity="0">47<animate attributeName="opacity" values="0;1;0" keyTimes="0;0.15000;0.16667" calcMode="discrete" dur="60s" repeatCount="indefinite"/></text><text x="0" y="0" opacity="0">48<animate attributeName="opacity" values="0;1;0" keyTimes="0;0.16667;0.18333" calcMode="discrete" dur="60s" repeatCount="indefinite"/></text><text x="0" y="0" opacity="0">49<animate attributeName="opacity" values="0;1;0" keyTimes="0;0.18333;0.20000" calcMode="discrete" dur="60s" repeatCount="indefinite"/></text><text x="0" y="0" opacity="0">50<animate attributeName="opacity" values="0;1;0" keyTimes="0;0.20000;0.21667" calcMode="discrete" dur="60s" repeatCount="indefinite"/></text><text x="0" y="0" opacity="0">51<animate attributeName="opacity" values="0;1;0" keyTimes="0;0.21667;0.23333" calcMode="discrete" dur="60s" repeatCount="indefinite"/></text><text x="0" y="0" opacity="0">52<animate attributeName="opacity" values="0;1;0" keyTimes="0;0.23333;0.25000" calcMode="discrete" dur="60s" repeatCount="indefinite"/></text><text x="0" y="0" opacity="0">53<animate attributeName="opacity" values="0;1;0" keyTimes="0;0.25000;0.26667" calcMode="discrete" dur="60s" repeatCount="indefinite"/></text><text x="0" y="0" opacity="0">54<animate attributeName="opacity" values="0;1;0" keyTimes="0;0.26667;0.28333" calcMode="discrete" dur="60s" repeatCount="indefinite"/></text><text x="0" y="0" opacity="0">55<animate attributeName="opacity" values="0;1;0" keyTimes="0;0.28333;0.30000" calcMode="discrete" dur="60s" repeatCount="indefinite"/></text><text x="0" y="0" opacity="0">56<animate attributeName="opacity" values="0;1;0" keyTimes="0;0.30000;0.31667" calcMode="discrete" dur="60s" repeatCount="indefinite"/></text><text x="0" y="0" opacity="0">57<animate attributeName="opacity" values="0;1;0" keyTimes="0;0.31667;0.33333" calcMode="discrete" dur="60s" repeatCount="indefinite"/></text><text x="0" y="0" opacity="0">58<animate attributeName="opacity" values="0;1;0" keyTimes="0;0.33333;0.35000" calcMode="discrete" dur="60s" repeatCount="indefinite"/></text><text x="0" y="0" opacity="0">59<animate attributeName="opacity" values="0;1;0" keyTimes="0;0.35000;0.36667" calcMode="discrete" dur="60s" repeatCount="indefinite"/></text></g>
  </g>
  <text x="150" y="366" text-anchor="middle" class="mono" font-size="12" fill="#8b86a8" letter-spacing="2">WIB • JAKARTA</text>
  <text x="150" y="404" text-anchor="middle" font-family="Segoe UI, Helvetica, Arial, sans-serif" font-size="15" font-weight="700" fill="#e2e0f0">☀️ Selamat Pagi!</text>
  <text x="150" y="424" text-anchor="middle" font-family="Segoe UI, Helvetica, Arial, sans-serif" font-size="12" fill="#a39fc0">Minggu, 11 Oktober 2026</text>

  <!-- stat cards -->
  
    <g transform="translate(320 98)">
      <rect width="162" height="92" rx="16" fill="#ffffff" fill-opacity=".035" stroke="#ffffff" stroke-opacity=".08"/>
      <rect width="4" height="40" y="26" rx="2" fill="#a78bfa"/>
      <text x="20" y="34" class="lbl">📦 Repositori</text>
      <text x="20" y="72" class="val" fill="#a78bfa">13</text>
    </g>
    <g transform="translate(494 98)">
      <rect width="162" height="92" rx="16" fill="#ffffff" fill-opacity=".035" stroke="#ffffff" stroke-opacity=".08"/>
      <rect width="4" height="40" y="26" rx="2" fill="#fbbf24"/>
      <text x="20" y="34" class="lbl">⭐ Bintang</text>
      <text x="20" y="72" class="val" fill="#fbbf24">7</text>
    </g>
    <g transform="translate(320 202)">
      <rect width="162" height="92" rx="16" fill="#ffffff" fill-opacity=".035" stroke="#ffffff" stroke-opacity=".08"/>
      <rect width="4" height="40" y="26" rx="2" fill="#f472b6"/>
      <text x="20" y="34" class="lbl">🔥 Kontribusi/thn</text>
      <text x="20" y="72" class="val" fill="#f472b6">179</text>
    </g>
    <g transform="translate(494 202)">
      <rect width="162" height="92" rx="16" fill="#ffffff" fill-opacity=".035" stroke="#ffffff" stroke-opacity=".08"/>
      <rect width="4" height="40" y="26" rx="2" fill="#22d3ee"/>
      <text x="20" y="34" class="lbl">🌐 Website Live</text>
      <text x="20" y="72" class="val" fill="#22d3ee">8</text>
    </g>
  
    <g transform="translate(668 98)">
      <rect width="140" height="92" rx="16" fill="#ffffff" fill-opacity=".035" stroke="#ffffff" stroke-opacity=".08"/>
      <rect width="4" height="40" y="26" rx="2" fill="#4ade80"/>
      <text x="20" y="34" class="lbl">👥 Followers</text>
      <text x="20" y="72" class="val" fill="#4ade80">12</text>
    </g>
  <g transform="translate(668 202)">
    <rect width="140" height="92" rx="16" fill="#ffffff" fill-opacity=".035" stroke="#ffffff" stroke-opacity=".08"/>
    <text x="70" y="40" text-anchor="middle" font-size="26">🚀</text>
    <text x="70" y="70" text-anchor="middle" class="lbl">Terus Membangun</text>
  </g>

  <!-- languages -->
  <g transform="translate(320 330)">
    <text x="0" y="-10" class="lbl">💻 Bahasa Terbanyak</text>
    <g transform="translate(0 4)" clip-path="url(#barclip)">
      <rect width="488" height="10" fill="#1f1b33"/>
      <rect x="0.0" y="0" width="394.5" height="10" fill="#3178c6"/><rect x="394.5" y="0" width="54.3" height="10" fill="#e34c26"/><rect x="448.8" y="0" width="28.6" height="10" fill="#f1e05a"/><rect x="477.4" y="0" width="7.9" height="10" fill="#663399"/><rect x="485.2" y="0" width="4.0" height="10" fill="#3572A5"/>
    </g>
    <g transform="translate(0 8)"><circle cx="5" cy="26" r="5" fill="#3178c6"/><text x="16" y="30" class="leg">TypeScript <tspan fill="#8b86a8">80.8%</tspan></text><circle cx="170" cy="26" r="5" fill="#e34c26"/><text x="181" y="30" class="leg">HTML <tspan fill="#8b86a8">11.1%</tspan></text><circle cx="335" cy="26" r="5" fill="#f1e05a"/><text x="346" y="30" class="leg">JavaScript <tspan fill="#8b86a8">5.9%</tspan></text><circle cx="5" cy="48" r="5" fill="#663399"/><text x="16" y="52" class="leg">CSS <tspan fill="#8b86a8">1.6%</tspan></text><circle cx="170" cy="48" r="5" fill="#3572A5"/><text x="181" y="52" class="leg">Python <tspan fill="#8b86a8">0.6%</tspan></text></g>
  </g>
</svg>